Khula-Semibold_old.ufo
<glyph name="quotesingle" format="1">
  <advance width="548"/>
  <unicode hex="0027"/>
  <outline>
    <contour>
      <point x="378" y="1316" type="line"/>
      <point x="342" y="841" type="line"/>
      <point x="207" y="841" type="line"/>
      <point x="170" y="1316" type="line"/>
    </contour>
  </outline>
</glyph>
<glyph name="parenright" format="1">
  <advance width="670"/>
  <unicode hex="0029"/>
  <outline>
    <contour>
      <point x="575" y="605" type="curve" smooth="yes"/>
      <point x="575" y="289"/>
      <point x="480" y="11"/>
      <point x="304" y="-192" type="curve"/>
      <point x="122" y="-192" type="line"/>
      <point x="287" y="33"/>
      <point x="378" y="314"/>
      <point x="378" y="607" type="curve" smooth="yes"/>
      <point x="378" y="754"/>
      <point x="356" y="897"/>
      <point x="311" y="1036" type="curve"/>
      <point x="267" y="1176"/>
      <point x="203" y="1303"/>
      <point x="120" y="1416" type="curve"/>
      <point x="304" y="1416" type="line"/>
      <point x="481" y="1205"/>
      <point x="575" y="921"/>
    </contour>
  </outline>
</glyph>
<glyph name="plus" format="1">
  <advance width="1052"/>
  <unicode hex="002B"/>
  <outline>
    <contour>
      <point x="445" y="570" type="line"/>
      <point x="86" y="570" type="line"/>
      <point x="86" y="730" type="line"/>
      <point x="445" y="730" type="line"/>
      <point x="445" y="1097" type="line"/>
      <point x="607" y="1097" type="line"/>
      <point x="607" y="730" type="line"/>
      <point x="966" y="730" type="line"/>
      <point x="966" y="570" type="line"/>
      <point x="607" y="570" type="line"/>
      <point x="607" y="204" type="line"/>
      <point x="445" y="204" type="line"/>
    </contour>
  </outline>
</glyph>
<glyph name="less" format="1">
  <advance width="1052"/>
  <unicode hex="003C"/>
  <outline>
    <contour>
      <point x="966" y="199" type="line"/>
      <point x="86" y="586" type="line"/>
      <point x="86" y="695" type="line"/>
      <point x="966" y="1134" type="line"/>
      <point x="966" y="958" type="line"/>
      <point x="306" y="649" type="line"/>
      <point x="966" y="376" type="line"/>
    </contour>
  </outline>
</glyph>
<glyph name="F" format="1">
  <advance width="981"/>
  <unicode hex="0046"/>
  <outline>
    <contour>
      <point x="387" y="0" type="line"/>
      <point x="174" y="0" type="line"/>
      <point x="174" y="1316" type="line"/>
      <point x="916" y="1316" type="line"/>
      <point x="916" y="1134" type="line"/>
      <point x="387" y="1134" type="line"/>
      <point x="387" y="723" type="line"/>
      <point x="883" y="723" type="line"/>
      <point x="883" y="540" type="line"/>
      <point x="387" y="540" type="line"/>
    </contour>
  </outline>
</glyph>
<glyph name="bracketleft" format="1">
  <advance width="608"/>
  <unicode hex="005B"/>
  <outline>
    <contour>
      <point x="562" y="-192" type="line"/>
      <point x="139" y="-192" type="line"/>
      <point x="139" y="1416" type="line"/>
      <point x="562" y="1416" type="line"/>
      <point x="562" y="1257" type="line"/>
      <point x="332" y="1257" type="line"/>
      <point x="332" y="-32" type="line"/>
      <point x="562" y="-32" type="line"/>
    </contour>
  </outline>
</glyph>
<glyph name="bracketright" format="1">
  <advance width="608"/>
  <unicode hex="005D"/>
  <outline>
    <contour>
      <point x="46" y="-32" type="line"/>
      <point x="276" y="-32" type="line"/>
      <point x="276" y="1257" type="line"/>
      <point x="46" y="1257" type="line"/>
      <point x="46" y="1416" type="line"/>
      <point x="468" y="1416" type="line"/>
      <point x="468" y="-192" type="line"/>
      <point x="46" y="-192" type="line"/>
    </contour>
  </outline>
</glyph>
<glyph name="asciicircum" format="1">
  <advance width="990"/>
  <unicode hex="005E"/>
  <outline>
    <contour>
      <point x="26" y="481" type="line"/>
      <point x="418" y="1323" type="line"/>
      <point x="527" y="1323" type="line"/>
      <point x="964" y="481" type="line"/>
      <point x="789" y="481" type="line"/>
      <point x="475" y="1106" type="line"/>
      <point x="199" y="481" type="line"/>
    </contour>
  </outline>
</glyph>
<glyph name="h" format="1">
  <advance width="1170"/>
  <unicode hex="0068"/>
  <outline>
    <contour>
      <point x="1027" y="0" type="line"/>
      <point x="814" y="0" type="line"/>
      <point x="814" y="612" type="line" smooth="yes"/>
      <point x="814" y="765"/>
      <point x="756" y="841"/>
      <point x="621" y="841" type="curve" smooth="yes"/>
      <point x="532" y="841"/>
      <point x="467" y="814"/>
      <point x="425" y="761" type="curve" smooth="yes"/>
      <point x="384" y="708"/>
      <point x="363" y="619"/>
      <point x="363" y="494" type="curve" smooth="yes"/>
      <point x="363" y="0" type="line"/>
      <point x="151" y="0" type="line"/>
      <point x="151" y="1400" type="line"/>
      <point x="363" y="1400" type="line"/>
      <point x="363" y="1045" type="line" smooth="yes"/>
      <point x="363" y="988"/>
      <point x="359" y="927"/>
      <point x="352" y="862" type="curve"/>
      <point x="365" y="862" type="line"/>
      <point x="424" y="958"/>
      <point x="528" y="1013"/>
      <point x="665" y="1013" type="curve" smooth="yes"/>
      <point x="906" y="1013"/>
      <point x="1027" y="892"/>
      <point x="1027" y="649" type="curve" smooth="yes"/>
    </contour>
  </outline>
</glyph>
<glyph name="s" format="1">
  <advance width="897"/>
  <unicode hex="0073"/>
  <outline>
    <contour>
      <point x="820" y="283" type="curve" smooth="yes"/>
      <point x="820" y="90"/>
      <point x="673" y="-18"/>
      <point x="409" y="-18" type="curve" smooth="yes"/>
      <point x="277" y="-18"/>
      <point x="171" y="2"/>
      <point x="90" y="42" type="curve"/>
      <point x="90" y="225" type="line"/>
      <point x="207" y="171"/>
      <point x="316" y="144"/>
      <point x="417" y="144" type="curve" smooth="yes"/>
      <point x="547" y="144"/>
      <point x="612" y="183"/>
      <point x="612" y="262" type="curve"/>
      <point x="610" y="337"/>
      <point x="558" y="366"/>
      <point x="382" y="438" type="curve"/>
      <point x="267" y="483"/>
      <point x="190" y="527"/>
      <point x="149" y="571" type="curve" smooth="yes"/>
      <point x="108" y="616"/>
      <point x="88" y="673"/>
      <point x="88" y="744" type="curve" smooth="yes"/>
      <point x="88" y="829"/>
      <point x="122" y="895"/>
      <point x="191" y="942" type="curve" smooth="yes"/>
      <point x="260" y="989"/>
      <point x="353" y="1013"/>
      <point x="472" y="1013" type="curve" smooth="yes"/>
      <point x="589" y="1013"/>
      <point x="699" y="989"/>
      <point x="804" y="942" type="curve"/>
      <point x="735" y="783" type="line"/>
      <point x="628" y="828"/>
      <point x="537" y="850"/>
      <point x="464" y="850" type="curve" smooth="yes"/>
      <point x="353" y="850"/>
      <point x="297" y="818"/>
      <point x="297" y="754" type="curve" smooth="yes"/>
      <point x="297" y="723"/>
      <point x="311" y="696"/>
      <point x="340" y="675" type="curve" smooth="yes"/>
      <point x="369" y="654"/>
      <point x="433" y="624"/>
      <point x="531" y="586" type="curve" smooth="yes"/>
      <point x="613" y="554"/>
      <point x="673" y="525"/>
      <point x="710" y="498" type="curve"/>
      <point x="785" y="446"/>
      <point x="820" y="379"/>
    </contour>
  </outline>
</glyph>
<glyph name="uudeva" format="1">
  <advance width="1567"/>
  <unicode hex="090A"/>
  <outline>
    <contour>
      <point x="855" y="447" type="curve"/>
      <point x="760" y="639" type="line"/>
      <point x="848" y="701"/>
      <point x="974" y="759"/>
      <point x="1097" y="759" type="curve" smooth="yes"/>
      <point x="1326" y="759"/>
      <point x="1467" y="619"/>
      <point x="1467" y="417" type="curve" smooth="yes"/>
      <point x="1467" y="290"/>
      <point x="1417" y="164"/>
      <point x="1339" y="59" type="curve"/>
      <point x="1160" y="129" type="line"/>
      <point x="1240" y="240"/>
      <point x="1286" y="342"/>
      <point x="1286" y="438" type="curve" smooth="yes"/>
      <point x="1286" y="529"/>
      <point x="1228" y="591"/>
      <point x="1125" y="591" type="curve" smooth="yes"/>
      <point x="1029" y="591"/>
      <point x="933" y="535"/>
    </contour>
    <contour>
      <point x="1081" y="1136" type="line"/>
      <point x="1077" y="1283" type="line"/>
      <point x="1597" y="1283" type="line"/>
      <point x="1597" y="1136" type="line"/>
    </contour>
    <component base="udeva"/>
    <contour>
      <point x="569" y="1283" type="move" name="top"/>
    </contour>
  </outline>
</glyph>
<glyph name="rrvocalicdeva" format="1">
  <advance width="1736"/>
  <unicode hex="0960"/>
  <outline>
    <contour>
      <point x="898" y="697" type="line"/>
      <point x="936" y="669"/>
      <point x="972" y="657"/>
      <point x="1035" y="657" type="curve" smooth="yes"/>
      <point x="1125" y="657"/>
      <point x="1205" y="679"/>
      <point x="1283" y="737" type="curve"/>
      <point x="1217" y="659" type="line"/>
      <point x="1184" y="706"/>
      <point x="1171" y="738"/>
      <point x="1171" y="772" type="curve" smooth="yes"/>
      <point x="1171" y="818"/>
      <point x="1207" y="858"/>
      <point x="1296" y="858" type="curve" smooth="yes"/>
      <point x="1415" y="858"/>
      <point x="1501" y="799"/>
      <point x="1501" y="730" type="curve" smooth="yes"/>
      <point x="1501" y="615"/>
      <point x="1300" y="486"/>
      <point x="1044" y="486" type="curve" smooth="yes"/>
      <point x="966" y="486"/>
      <point x="901" y="499"/>
      <point x="824" y="531" type="curve"/>
    </contour>
    <contour>
      <point x="1133" y="1136" type="line"/>
      <point x="1133" y="1283" type="line"/>
      <point x="1766" y="1283" type="line"/>
      <point x="1766" y="1136" type="line"/>
    </contour>
    <contour>
      <point x="1364" y="186" type="curve" smooth="yes"/>
      <point x="1364" y="127"/>
      <point x="1413" y="82"/>
      <point x="1501" y="82" type="curve" smooth="yes"/>
      <point x="1558" y="82"/>
      <point x="1602" y="92"/>
      <point x="1677" y="125" type="curve"/>
      <point x="1703" y="-16" type="line"/>
      <point x="1627" y="-46"/>
      <point x="1569" y="-56"/>
      <point x="1493" y="-56" type="curve" smooth="yes"/>
      <point x="1315" y="-56"/>
      <point x="1186" y="45"/>
      <point x="1186" y="190" type="curve" smooth="yes"/>
      <point x="1186" y="315"/>
      <point x="1282" y="407"/>
      <point x="1473" y="460" type="curve"/>
      <point x="1392" y="400" type="line"/>
      <point x="1257" y="594" type="line"/>
      <point x="1399" y="674" type="line"/>
      <point x="1587" y="409" type="line"/>
      <point x="1573" y="357" type="line"/>
      <point x="1416" y="315"/>
      <point x="1364" y="252"/>
    </contour>
    <component base="taradeva"/>
  </outline>
</glyph>
<glyph name="llvocalicvowelsigndeva" format="1">
  <advance width="0"/>
  <unicode hex="0963"/>
  <outline>
    <contour>
      <point x="109" y="-666" type="line"/>
      <point x="75" y="-681"/>
      <point x="26" y="-691"/>
      <point x="-16" y="-691" type="curve" smooth="yes"/>
      <point x="-126" y="-691"/>
      <point x="-177" y="-629"/>
      <point x="-177" y="-565" type="curve" smooth="yes"/>
      <point x="-177" y="-492"/>
      <point x="-114" y="-440"/>
      <point x="-2" y="-439" type="curve"/>
      <point x="13" y="-502" type="line"/>
      <point x="-46" y="-503"/>
      <point x="-68" y="-531"/>
      <point x="-68" y="-562" type="curve" smooth="yes"/>
      <point x="-68" y="-589"/>
      <point x="-48" y="-607"/>
      <point x="-6" y="-607" type="curve" smooth="yes"/>
      <point x="25" y="-607"/>
      <point x="55" y="-599"/>
      <point x="94" y="-583" type="curve"/>
    </contour>
    <contour>
      <point x="-276" y="-64" type="curve"/>
      <point x="-364" y="-148" type="line"/>
      <point x="-412" y="-75"/>
      <point x="-468" y="-39"/>
      <point x="-526" y="-39" type="curve" smooth="yes"/>
      <point x="-587" y="-39"/>
      <point x="-626" y="-84"/>
      <point x="-626" y="-137" type="curve" smooth="yes"/>
      <point x="-626" y="-195"/>
      <point x="-599" y="-250"/>
      <point x="-490" y="-336" type="curve"/>
      <point x="-591" y="-405" type="line"/>
      <point x="-715" y="-307"/>
      <point x="-763" y="-211"/>
      <point x="-763" y="-114" type="curve" smooth="yes"/>
      <point x="-763" y="-5"/>
      <point x="-684" y="88"/>
      <point x="-546" y="88" type="curve" smooth="yes"/>
      <point x="-433" y="88"/>
      <point x="-350" y="33"/>
    </contour>
    <contour>
      <point x="-71" y="-233" type="curve"/>
      <point x="-139" y="-282" type="line"/>
      <point x="-94" y="-231"/>
      <point x="-74" y="-189"/>
      <point x="-74" y="-137" type="curve" smooth="yes"/>
      <point x="-74" y="-93"/>
      <point x="-104" y="-53"/>
      <point x="-160" y="-53" type="curve" smooth="yes"/>
      <point x="-236" y="-53"/>
      <point x="-294" y="-129"/>
      <point x="-323" y="-245" type="curve"/>
      <point x="-444" y="-204" type="line"/>
      <point x="-410" y="-44"/>
      <point x="-313" y="74"/>
      <point x="-165" y="74" type="curve" smooth="yes"/>
      <point x="-33" y="74"/>
      <point x="47" y="-21"/>
      <point x="47" y="-132" type="curve" smooth="yes"/>
      <point x="47" y="-200"/>
      <point x="23" y="-270"/>
      <point x="-12" y="-323" type="curve"/>
      <point x="-30" y="-323" type="line"/>
      <point x="-102" y="-323"/>
      <point x="-129" y="-348"/>
      <point x="-129" y="-377" type="curve" smooth="yes"/>
      <point x="-129" y="-407"/>
      <point x="-105" y="-427"/>
      <point x="-58" y="-427" type="curve" smooth="yes"/>
      <point x="-28" y="-427"/>
      <point x="3" y="-422"/>
      <point x="48" y="-409" type="curve"/>
      <point x="64" y="-497" type="line"/>
      <point x="16" y="-512"/>
      <point x="-22" y="-517"/>
      <point x="-60" y="-517" type="curve" smooth="yes"/>
      <point x="-179" y="-517"/>
      <point x="-251" y="-450"/>
      <point x="-251" y="-370" type="curve" smooth="yes"/>
      <point x="-251" y="-298"/>
      <point x="-187" y="-239"/>
    </contour>
    <contour>
      <point x="-433.0" y="0.0" type="move" name="_btm"/>
    </contour>
  </outline>
</glyph>
<glyph name="endash" format="1">
  <advance width="1004"/>
  <unicode hex="2013"/>
  <outline>
    <contour>
      <point x="115" y="509" type="line"/>
      <point x="115" y="680" type="line"/>
      <point x="889" y="680" type="line"/>
      <point x="889" y="509" type="line"/>
    </contour>
  </outline>
</glyph>
<glyph name="aivowelsignanusvaradeva" format="1">
  <advance width="0"/>
  <outline>
    <component base="aivowelsigndeva"/>
    <component base="anusvaradeva" xOffset="234"/>
    <contour>
      <point x="-434.0" y="1283.0" type="move" name="_top"/>
    </contour>
  </outline>
</glyph>
<glyph name="aivowelsignrephanusvaradeva" format="1">
  <advance width="0"/>
  <outline>
    <component base="aivowelsigndeva"/>
    <component base="candrabindusmalldeva" xOffset="297" yOffset="1"/>
    <contour>
      <point x="-434.0" y="1283.0" type="move" name="_top"/>
    </contour>
  </outline>
</glyph>
<glyph name="evowelsigncandrabindudeva" format="1">
  <advance width="0"/>
  <outline>
    <component base="evowelsigndeva"/>
    <component base="rephdeva" xOffset="39"/>
    <contour>
      <point x="-434.0" y="1283.0" type="move" name="_top"/>
    </contour>
  </outline>
</glyph>
<glyph name="harrvocalicdeva" format="1">
  <advance width="1197"/>
  <outline>
    <contour>
      <point x="1119" y="204" type="curve"/>
      <point x="982" y="204" type="line"/>
      <point x="875" y="204"/>
      <point x="833" y="155"/>
      <point x="833" y="103" type="curve" smooth="yes"/>
      <point x="833" y="53"/>
      <point x="876" y="17"/>
      <point x="958" y="17" type="curve" smooth="yes"/>
      <point x="1008" y="17"/>
      <point x="1051" y="25"/>
      <point x="1132" y="49" type="curve"/>
      <point x="1158" y="-71" type="line"/>
      <point x="1079" y="-92"/>
      <point x="1017" y="-102"/>
      <point x="955" y="-102" type="curve" smooth="yes"/>
      <point x="768" y="-102"/>
      <point x="660" y="-3"/>
      <point x="660" y="116" type="curve" smooth="yes"/>
      <point x="660" y="228"/>
      <point x="765" y="322"/>
      <point x="939" y="322" type="curve" smooth="yes"/>
      <point x="957" y="322"/>
      <point x="968" y="322"/>
      <point x="983" y="322" type="curve"/>
      <point x="949" y="292" type="line"/>
      <point x="949" y="377"/>
      <point x="851" y="443"/>
      <point x="676" y="443" type="curve" smooth="yes"/>
      <point x="478" y="443"/>
      <point x="371" y="332"/>
      <point x="371" y="189" type="curve" smooth="yes"/>
      <point x="371" y="27"/>
      <point x="476" y="-112"/>
      <point x="715" y="-268" type="curve"/>
      <point x="603" y="-380" type="line"/>
      <point x="340" y="-215"/>
      <point x="186" y="-21"/>
      <point x="186" y="216" type="curve" smooth="yes"/>
      <point x="186" y="424"/>
      <point x="353" y="602"/>
      <point x="663" y="602" type="curve" smooth="yes"/>
      <point x="946" y="602"/>
      <point x="1122" y="447"/>
      <point x="1122" y="280" type="curve" smooth="yes"/>
      <point x="1122" y="266"/>
      <point x="1120" y="214"/>
    </contour>
    <contour>
      <point x="1227" y="1136" type="line"/>
      <point x="-30" y="1136" type="line"/>
      <point x="-30" y="1283" type="line"/>
      <point x="1227" y="1283" type="line"/>
    </contour>
    <contour>
      <point x="746" y="1162" type="line"/>
      <point x="954" y="1162" type="line"/>
      <point x="954" y="794" type="line"/>
      <point x="451" y="794" type="line"/>
      <point x="333" y="794"/>
      <point x="289" y="746"/>
      <point x="289" y="680" type="curve" smooth="yes"/>
      <point x="289" y="612"/>
      <point x="348" y="561"/>
      <point x="445" y="532" type="curve"/>
      <point x="319" y="409" type="line"/>
      <point x="168" y="489"/>
      <point x="92" y="587"/>
      <point x="92" y="715" type="curve" smooth="yes"/>
      <point x="92" y="842"/>
      <point x="186" y="943"/>
      <point x="396" y="943" type="curve" smooth="yes"/>
      <point x="785" y="943" type="line"/>
      <point x="746" y="899" type="line"/>
    </contour>
    <contour>
      <point x="1231" y="-334" type="line"/>
      <point x="1176" y="-356"/>
      <point x="1104" y="-375"/>
      <point x="1032" y="-375" type="curve" smooth="yes"/>
      <point x="872" y="-375"/>
      <point x="787" y="-280"/>
      <point x="787" y="-185" type="curve" smooth="yes"/>
      <point x="787" y="-82"/>
      <point x="872" y="5"/>
      <point x="1049" y="5" type="curve"/>
      <point x="1072" y="-82" type="line"/>
      <point x="977" y="-85"/>
      <point x="928" y="-134"/>
      <point x="928" y="-183" type="curve" smooth="yes"/>
      <point x="928" y="-228"/>
      <point x="966" y="-262"/>
      <point x="1044" y="-262" type="curve" smooth="yes"/>
      <point x="1094" y="-262"/>
      <point x="1142" y="-250"/>
      <point x="1207" y="-223" type="curve"/>
    </contour>
  </outline>
</glyph>
<glyph name="ivowelsign03deva" format="1">
  <advance width="618"/>
  <outline>
    <contour>
      <point x="186" y="1254" type="line"/>
      <point x="186" y="1356" type="line"/>
      <point x="186" y="1580"/>
      <point x="355" y="1770"/>
      <point x="759" y="1770" type="curve" smooth="yes"/>
      <point x="1015" y="1770"/>
      <point x="1271" y="1730"/>
      <point x="1518" y="1649" type="curve"/>
      <point x="1479" y="1489" type="line"/>
      <point x="1223" y="1562"/>
      <point x="1002" y="1592"/>
      <point x="789" y="1592" type="curve" smooth="yes"/>
      <point x="508" y="1592"/>
      <point x="393" y="1474"/>
      <point x="393" y="1337" type="curve" smooth="yes"/>
      <point x="393" y="1254" type="line"/>
    </contour>
    <component base="aavowelsigndeva"/>
  </outline>
</glyph>
<glyph name="ivowelsign04deva" format="1">
  <advance width="618"/>
  <outline>
    <contour>
      <point x="186" y="1254" type="line"/>
      <point x="186" y="1350" type="line"/>
      <point x="186" y="1564"/>
      <point x="342" y="1770"/>
      <point x="763" y="1770" type="curve" smooth="yes"/>
      <point x="1057" y="1770"/>
      <point x="1401" y="1707"/>
      <point x="1681" y="1605" type="curve"/>
      <point x="1639" y="1449" type="line"/>
      <point x="1354" y="1545"/>
      <point x="1024" y="1594"/>
      <point x="803" y="1594" type="curve" smooth="yes"/>
      <point x="501" y="1594"/>
      <point x="393" y="1467"/>
      <point x="393" y="1332" type="curve" smooth="yes"/>
      <point x="393" y="1254" type="line"/>
    </contour>
    <component base="aavowelsigndeva"/>
  </outline>
</glyph>
<glyph name="ngagadeva" format="1">
  <advance width="1215"/>
  <outline>
    <contour>
      <point x="119" y="-88" type="curve" smooth="yes"/>
      <point x="119" y="-47"/>
      <point x="143" y="-21"/>
      <point x="199" y="-21" type="curve" smooth="yes"/>
      <point x="304" y="-21" type="line"/>
      <point x="275" y="-50" type="line"/>
      <point x="275" y="270" type="line"/>
      <point x="459" y="270" type="line"/>
      <point x="459" y="-252" type="line"/>
      <point x="459" y="-308"/>
      <point x="438" y="-340"/>
      <point x="391" y="-340" type="curve" smooth="yes"/>
      <point x="344" y="-340"/>
      <point x="268" y="-297"/>
      <point x="206" y="-236" type="curve" smooth="yes"/>
      <point x="154" y="-184"/>
      <point x="119" y="-127"/>
    </contour>
    <contour>
      <point x="753" y="270" type="line"/>
      <point x="938" y="270" type="line"/>
      <point x="938" y="-506" type="line"/>
      <point x="753" y="-506" type="line"/>
    </contour>
    <contour>
      <point x="740" y="1167" type="line"/>
      <point x="947" y="1167" type="line"/>
      <point x="947" y="820" type="line"/>
      <point x="501" y="820" type="line"/>
      <point x="389" y="820"/>
      <point x="347" y="780"/>
      <point x="347" y="724" type="curve" smooth="yes"/>
      <point x="347" y="673"/>
      <point x="389" y="635"/>
      <point x="473" y="605" type="curve"/>
      <point x="386" y="613" type="line"/>
      <point x="476" y="653"/>
      <point x="579" y="679"/>
      <point x="695" y="679" type="curve" smooth="yes"/>
      <point x="914" y="679"/>
      <point x="1053" y="576"/>
      <point x="1053" y="414" type="curve" smooth="yes"/>
      <point x="1053" y="256"/>
      <point x="903" y="139"/>
      <point x="641" y="139" type="curve" smooth="yes"/>
      <point x="480" y="139"/>
      <point x="313" y="176"/>
      <point x="115" y="282" type="curve"/>
      <point x="156" y="444" type="line"/>
      <point x="332" y="336"/>
      <point x="492" y="295"/>
      <point x="620" y="295" type="curve" smooth="yes"/>
      <point x="777" y="295"/>
      <point x="863" y="344"/>
      <point x="863" y="417" type="curve" smooth="yes"/>
      <point x="863" y="484"/>
      <point x="800" y="527"/>
      <point x="683" y="527" type="curve" smooth="yes"/>
      <point x="590" y="527"/>
      <point x="506" y="500"/>
      <point x="438" y="466" type="curve"/>
      <point x="429" y="466" type="line"/>
      <point x="239" y="540"/>
      <point x="164" y="636"/>
      <point x="164" y="755" type="curve" smooth="yes"/>
      <point x="164" y="865"/>
      <point x="246" y="967"/>
      <point x="465" y="967" type="curve" smooth="yes"/>
      <point x="789" y="967" type="line"/>
      <point x="740" y="914" type="line"/>
    </contour>
    <contour>
      <point x="1142" y="845" type="curve" smooth="yes"/>
      <point x="1230" y="845"/>
      <point x="1264" y="792"/>
      <point x="1264" y="731" type="curve" smooth="yes"/>
      <point x="1264" y="670"/>
      <point x="1226" y="616"/>
      <point x="1142" y="616" type="curve" smooth="yes"/>
      <point x="1054" y="616"/>
      <point x="1020" y="671"/>
      <point x="1020" y="731" type="curve" smooth="yes"/>
      <point x="1020" y="792"/>
      <point x="1056" y="845"/>
    </contour>
    <contour>
      <point x="1332" y="1136" type="line"/>
      <point x="-30" y="1136" type="line"/>
      <point x="-30" y="1283" type="line"/>
      <point x="1332" y="1283" type="line"/>
    </contour>
    <contour>
      <point x="493.0" y="-575.0" type="move" name="btm"/>
    </contour>
    <contour>
      <point x="734.0" y="1283.0" type="move" name="top"/>
    </contour>
  </outline>
</glyph>
<glyph name="nnaprehalfdeva" format="1">
  <advance width="1011"/>
  <outline>
    <contour>
      <point x="685" y="1167" type="line"/>
      <point x="892" y="1167" type="line"/>
      <point x="892" y="742" type="line"/>
      <point x="892" y="511"/>
      <point x="776" y="337"/>
      <point x="524" y="337" type="curve" smooth="yes"/>
      <point x="273" y="337"/>
      <point x="137" y="510"/>
      <point x="137" y="739" type="curve" smooth="yes"/>
      <point x="137" y="1167" type="line"/>
      <point x="343" y="1167" type="line"/>
      <point x="343" y="689" type="line"/>
      <point x="343" y="564"/>
      <point x="411" y="499"/>
      <point x="511" y="499" type="curve" smooth="yes"/>
      <point x="620" y="499"/>
      <point x="685" y="569"/>
      <point x="685" y="720" type="curve" smooth="yes"/>
    </contour>
    <contour>
      <point x="-30" y="1136" type="line"/>
      <point x="-30" y="1283" type="line"/>
      <point x="1041" y="1283" type="line"/>
      <point x="1041" y="1136" type="line"/>
    </contour>
  </outline>
</glyph>
<glyph name="rrvocaliclowdeva" format="1">
  <advance width="0"/>
  <outline>
    <contour>
      <point x="-75" y="-572" type="line"/>
      <point x="-131" y="-594"/>
      <point x="-209" y="-611"/>
      <point x="-284" y="-611" type="curve" smooth="yes"/>
      <point x="-468" y="-611"/>
      <point x="-551" y="-527"/>
      <point x="-551" y="-434" type="curve" smooth="yes"/>
      <point x="-551" y="-339"/>
      <point x="-452" y="-258"/>
      <point x="-262" y="-257" type="curve"/>
      <point x="-237" y="-337" type="line"/>
      <point x="-343" y="-342"/>
      <point x="-392" y="-384"/>
      <point x="-392" y="-431" type="curve" smooth="yes"/>
      <point x="-392" y="-473"/>
      <point x="-354" y="-503"/>
      <point x="-271" y="-503" type="curve" smooth="yes"/>
      <point x="-220" y="-503"/>
      <point x="-166" y="-492"/>
      <point x="-100" y="-466" type="curve"/>
    </contour>
    <contour>
      <point x="-149" y="-329" type="line"/>
      <point x="-230" y="-348"/>
      <point x="-295" y="-359"/>
      <point x="-358" y="-359" type="curve" smooth="yes"/>
      <point x="-551" y="-359"/>
      <point x="-660" y="-272"/>
      <point x="-660" y="-159" type="curve" smooth="yes"/>
      <point x="-660" y="-60"/>
      <point x="-555" y="29"/>
      <point x="-352" y="29" type="curve" smooth="yes"/>
      <point x="-303" y="29"/>
      <point x="-253" y="27"/>
      <point x="-225" y="25" type="curve"/>
      <point x="-225" y="-85" type="line"/>
      <point x="-253" y="-85"/>
      <point x="-293" y="-85"/>
      <point x="-324" y="-85" type="curve" smooth="yes"/>
      <point x="-439" y="-85"/>
      <point x="-485" y="-122"/>
      <point x="-485" y="-168" type="curve" smooth="yes"/>
      <point x="-485" y="-211"/>
      <point x="-444" y="-245"/>
      <point x="-354" y="-245" type="curve" smooth="yes"/>
      <point x="-302" y="-245"/>
      <point x="-254" y="-238"/>
      <point x="-176" y="-216" type="curve"/>
    </contour>
    <contour>
      <point x="-388.0" y="0.0" type="move" name="_btm"/>
    </contour>
  </outline>
</glyph>
<glyph name="rvocalicvowelsignlowdeva" format="1">
  <advance width="0"/>
  <outline>
    <contour>
      <point x="-146" y="-414" type="line"/>
      <point x="-216" y="-439"/>
      <point x="-280" y="-452"/>
      <point x="-361" y="-452" type="curve" smooth="yes"/>
      <point x="-538" y="-452"/>
      <point x="-682" y="-357"/>
      <point x="-682" y="-204" type="curve" smooth="yes"/>
      <point x="-682" y="-75"/>
      <point x="-561" y="29"/>
      <point x="-359" y="29" type="curve" smooth="yes"/>
      <point x="-313" y="29"/>
      <point x="-271" y="27"/>
      <point x="-225" y="25" type="curve"/>
      <point x="-225" y="-98" type="line"/>
      <point x="-253" y="-98"/>
      <point x="-295" y="-98"/>
      <point x="-326" y="-98" type="curve" smooth="yes"/>
      <point x="-456" y="-98"/>
      <point x="-510" y="-153"/>
      <point x="-510" y="-217" type="curve" smooth="yes"/>
      <point x="-510" y="-276"/>
      <point x="-461" y="-322"/>
      <point x="-363" y="-322" type="curve" smooth="yes"/>
      <point x="-302" y="-322"/>
      <point x="-251" y="-312"/>
      <point x="-171" y="-280" type="curve"/>
    </contour>
    <contour>
      <point x="-388.0" y="0.0" type="move" name="_btm"/>
    </contour>
  </outline>
</glyph>
